<?xml version="1.0" encoding="UTF-8"?>
<svg xmlns="http://www.w3.org/2000/svg" xmlns:xlink="http://www.w3.org/1999/xlink" viewBox="0 0 64 64" width="64px" height="64px">
<g id="surface11061274">
<path style=" stroke:none;fill-rule:nonzero;fill:rgb(100%,100%,100%);fill-opacity:1;" d="M 31.398438 8 C 27.597656 8 18.199219 8.398438 13.199219 13.199219 C 9.597656 16.597656 8.199219 21.800781 8 28 C 7.601562 37.800781 9.796875 44 13.398438 47.199219 C 14.199219 47.800781 16.199219 49.402344 20 50.601562 L 20 55.601562 C 20 55.601562 20 57.601562 21.199219 58 C 21.398438 58 21.601562 58.199219 21.800781 58.199219 C 23 58.199219 24 56.796875 25.398438 55.398438 C 26.597656 54 27.597656 53 28.199219 52 L 32.601562 52 C 36.402344 52 45.800781 51.601562 50.800781 46.800781 C 54.402344 43.199219 55.800781 38 55.800781 31.398438 C 56 30.398438 56 29.199219 56 28 C 55.800781 20.601562 53.601562 15.601562 50.601562 12.800781 C 49.402344 11.800781 44.199219 8 33 8 Z M 31 11.800781 L 32.800781 11.800781 C 43.402344 11.800781 47.402344 15.203125 47.800781 15.601562 C 50.199219 17.601562 51.601562 22 51.800781 27.800781 L 51.800781 28.601562 C 52 29.800781 52 30.796875 52 31.398438 C 51.800781 37.398438 50.597656 41.398438 48.199219 44 C 44 47.800781 35.199219 48 32.800781 48 L 29 48 L 25.800781 51.601562 L 23.800781 53.800781 L 23.398438 54.398438 C 23 54.796875 22.398438 55.601562 22 55.800781 L 22 46.800781 C 18 45.800781 16.398438 44.398438 16 44 C 13.199219 41.601562 11.601562 35.800781 12 28 L 12 26 C 12.398438 21.199219 13.601562 18 15.601562 15.800781 C 19.800781 12 28.601562 11.800781 31 11.800781 Z M 30.800781 16.199219 C 29.800781 16.199219 29.800781 17.601562 30.800781 17.601562 C 38.199219 17.601562 44.601562 22.601562 44.601562 32 C 44.601562 33 46 33 46 32 C 46 21.800781 39.199219 16 30.800781 16.199219 Z M 22.875 18.050781 C 22.449219 18 22 18.097656 21.601562 18.398438 C 19.601562 19.398438 17.597656 21.402344 18.199219 23.601562 C 18.199219 23.601562 18.601562 25.398438 20.800781 29.199219 C 22 31 23 32.601562 24 33.800781 C 25 35.199219 26.597656 36.800781 28.199219 38 C 31.398438 40.601562 36.402344 43.199219 38.601562 43.800781 C 40.601562 44.402344 42.800781 42.398438 43.800781 40.398438 C 44.199219 39.597656 44 38.601562 43.199219 38 C 42 36.800781 40 35.402344 38.601562 34.601562 C 37.601562 34 36.398438 34.398438 36 35 L 35 36.199219 C 34.601562 36.800781 33.601562 36.800781 33.601562 36.800781 C 27 35 25.199219 28.199219 25.199219 28.199219 C 25.199219 28.199219 25.199219 27.402344 25.800781 26.800781 L 27 25.800781 C 27.601562 25.402344 28 24.199219 27.398438 23.199219 C 27 22.597656 26.402344 21.402344 25.800781 20.800781 C 25.199219 20 24 18.601562 24 18.601562 C 23.699219 18.300781 23.300781 18.101562 22.875 18.050781 Z M 32.199219 20.199219 C 31.199219 20 31 21.601562 32 21.601562 C 37.601562 22 40.800781 25.800781 40.601562 30.601562 C 40.402344 31.601562 42 31.601562 42 30.601562 C 42.199219 25 38.597656 20.398438 32.199219 20.199219 Z M 32.800781 24 C 31.800781 23.800781 31.800781 25.398438 32.800781 25.398438 C 35.199219 25.398438 36.398438 26.800781 36.398438 29.199219 C 36.597656 30.199219 38 30.199219 38 29.199219 C 37.800781 26 36 24 32.800781 24 Z M 32.800781 24 "/>
</g>
</svg>
