<?xml version="1.0" encoding="UTF-8"?> <svg xmlns="http://www.w3.org/2000/svg" xmlns:xlink="http://www.w3.org/1999/xlink" viewBox="0 0 224 224" width="90px" height="90px"> <g fill="none" fill-rule="nonzero" stroke="none" stroke-width="1" stroke-linecap="butt" stroke-linejoin="miter" stroke-miterlimit="10" stroke-dasharray="" stroke-dashoffset="0" font-family="none" font-weight="none" font-size="none" text-anchor="none" style="mix-blend-mode: normal"> <path d="M0,224v-224h224v224z" fill="none"></path> <g fill="#ffffff"> <path d="M187.81875,29.75c-2.42708,0.10708 -4.68842,0.81404 -6.67916,1.61875c-1.86481,0.75013 -8.98987,3.80605 -20.21251,8.61875c-11.23241,4.81689 -26.10537,11.20232 -41.97083,18.025c-31.73092,13.64537 -67.40481,29.0053 -85.67709,36.86667c-0.68709,0.2955 -3.08456,1.0614 -5.62917,3.04792c-2.54461,1.98652 -5.25,6.10289 -5.25,10.68959c0,3.69854 1.76264,7.37292 3.98125,9.56667c2.21861,2.19375 4.56619,3.27743 6.57708,4.09792c7.29617,2.97706 29.92479,12.23719 34.19792,13.98542c1.50383,4.60681 9.69434,29.66153 11.59375,35.80208c1.25211,4.05219 2.44401,6.59006 3.99583,8.60417c0.77591,1.00705 1.67785,1.88962 2.77084,2.58125c0.43687,0.27642 0.91589,0.48934 1.4,0.68542l0.02916,0.01458c0.11155,0.0448 0.20772,0.12084 0.32084,0.16041c0.21341,0.07466 0.35617,0.08363 0.64167,0.14583c1.13735,0.36731 2.28563,0.59792 3.31041,0.59792c4.36922,0.00001 7.04375,-2.40625 7.04375,-2.40625l0.16042,-0.11667l22.47291,-19.43959l27.25625,25.78333c0.38376,0.54266 3.9629,5.45417 11.85625,5.45417c4.68681,0 8.40471,-2.35181 10.79166,-4.85625c2.38695,-2.50445 3.87407,-5.13559 4.50625,-8.44375v-0.01458c0.59129,-3.12605 25.71041,-132.08125 25.71041,-132.08125l-0.04375,0.175c0.73532,-3.35636 0.92801,-6.48212 0.11667,-9.56667c-0.81139,-3.08455 -2.94928,-6.03785 -5.6,-7.62708c-2.65046,-1.58888 -5.24375,-2.07583 -7.67084,-1.96875zM186.41875,45.35417c-0.03584,0.21791 0.02684,0.10833 -0.02916,0.36458l-0.01458,0.0875l-0.01459,0.0875c0,0 -24.80799,127.30582 -25.725,132.15417c0.0671,-0.36615 -0.23967,0.36186 -0.55417,0.80208c-0.44465,-0.30647 -1.35625,-0.7 -1.35625,-0.7l-0.14583,-0.16041l-37.23125,-35.21875l-26.32292,22.75l7.83126,-31.35417c0,0 48.95274,-50.67359 51.90208,-53.62292c2.37441,-2.35947 2.87292,-3.18196 2.87292,-3.99583c0,-1.09013 -0.56817,-1.88125 -1.8375,-1.88125c-1.1424,0 -2.67867,1.11067 -3.5,1.63333c-10.70049,6.82114 -57.67747,34.20025 -78.73541,46.44792c-3.34645,-1.36953 -26.59551,-10.88626 -34.475,-14.10208c0.05966,-0.02613 0.04002,-0.01687 0.10208,-0.04375c18.27706,-7.86343 53.93609,-23.22324 85.6625,-36.86667c15.86321,-6.82172 30.74748,-13.21199 41.97084,-18.025c11.05055,-4.7389 18.72885,-8.00031 19.6,-8.35625z"></path> </g> </g> </svg> 